TITLE ""
FILE "1Q_t_0159-0168.mp3" MP3
  TRACK 01 AUDIO
    TITLE "1Q_t_0159-0168_01"
    INDEX 01 00:00:00
  TRACK 02 AUDIO
    TITLE "1Q_t_0159-0168_02"
    INDEX 01 00:00:12
  TRACK 03 AUDIO
    TITLE "1Q_t_0159-0168_03"
    INDEX 01 00:01:41
  TRACK 04 AUDIO
    TITLE "1Q_t_0159-0168_04"
    INDEX 01 00:01:57
  TRACK 05 AUDIO
    TITLE "1Q_t_0159-0168_05"
    INDEX 01 00:05:19
  TRACK 06 AUDIO
    TITLE "1Q_t_0159-0168_06"
    INDEX 01 00:05:33
  TRACK 07 AUDIO
    TITLE "1Q_t_0159-0168_07"
    INDEX 01 00:13:38
  TRACK 08 AUDIO
    TITLE "1Q_t_0159-0168_08"
    INDEX 01 00:14:16
  TRACK 09 AUDIO
    TITLE "1Q_t_0159-0168_09"
    INDEX 01 00:15:29
  TRACK 10 AUDIO
    TITLE "1Q_t_0159-0168_10"
    INDEX 01 00:15:45
  TRACK 11 AUDIO
    TITLE "1Q_t_0159-0168_11"
    INDEX 01 00:16:60
  TRACK 12 AUDIO
    TITLE "1Q_t_0159-0168_12"
    INDEX 01 00:17:01
  TRACK 13 AUDIO
    TITLE "1Q_t_0159-0168_13"
    INDEX 01 00:24:13
  TRACK 14 AUDIO
    TITLE "1Q_t_0159-0168_14"
    INDEX 01 00:24:68
  TRACK 15 AUDIO
    TITLE "1Q_t_0159-0168_15"
    INDEX 01 00:26:08
  TRACK 16 AUDIO
    TITLE "1Q_t_0159-0168_16"
    INDEX 01 00:26:21
  TRACK 17 AUDIO
    TITLE "1Q_t_0159-0168_17"
    INDEX 01 00:28:38
  TRACK 18 AUDIO
    TITLE "1Q_t_0159-0168_18"
    INDEX 01 00:28:54
  TRACK 19 AUDIO
    TITLE "1Q_t_0159-0168_19"
    INDEX 01 00:33:72
  TRACK 20 AUDIO
    TITLE "1Q_t_0159-0168_20"
    INDEX 01 00:34:54
  TRACK 21 AUDIO
    TITLE "1Q_t_0159-0168_21"
    INDEX 01 00:35:64
  TRACK 22 AUDIO
    TITLE "1Q_t_0159-0168_22"
    INDEX 01 00:36:02
  TRACK 23 AUDIO
    TITLE "1Q_t_0159-0168_23"
    INDEX 01 00:37:27
  TRACK 24 AUDIO
    TITLE "1Q_t_0159-0168_24"
    INDEX 01 00:37:41
  TRACK 25 AUDIO
    TITLE "1Q_t_0159-0168_25"
    INDEX 01 00:44:60
  TRACK 26 AUDIO
    TITLE "1Q_t_0159-0168_26"
    INDEX 01 00:45:36
  TRACK 27 AUDIO
    TITLE "1Q_t_0159-0168_27"
    INDEX 01 00:46:52
  TRACK 28 AUDIO
    TITLE "1Q_t_0159-0168_28"
    INDEX 01 00:46:73
  TRACK 29 AUDIO
    TITLE "1Q_t_0159-0168_29"
    INDEX 01 00:49:15
  TRACK 30 AUDIO
    TITLE "1Q_t_0159-0168_30"
    INDEX 01 00:49:30
  TRACK 31 AUDIO
    TITLE "1Q_t_0159-0168_31"
    INDEX 01 00:55:52
  TRACK 32 AUDIO
    TITLE "1Q_t_0159-0168_32"
    INDEX 01 00:56:30
  TRACK 33 AUDIO
    TITLE "1Q_t_0159-0168_33"
    INDEX 01 00:57:32
  TRACK 34 AUDIO
    TITLE "1Q_t_0159-0168_34"
    INDEX 01 00:57:46
  TRACK 35 AUDIO
    TITLE "1Q_t_0159-0168_35"
    INDEX 01 00:58:63
  TRACK 36 AUDIO
    TITLE "1Q_t_0159-0168_36"
    INDEX 01 00:59:01
  TRACK 37 AUDIO
    TITLE "1Q_t_0159-0168_37"
    INDEX 01 01:05:57
  TRACK 38 AUDIO
    TITLE "1Q_t_0159-0168_38"
    INDEX 01 01:06:37
  TRACK 39 AUDIO
    TITLE "1Q_t_0159-0168_39"
    INDEX 01 01:07:44
  TRACK 40 AUDIO
    TITLE "1Q_t_0159-0168_40"
    INDEX 01 01:07:60
  TRACK 41 AUDIO
    TITLE "1Q_t_0159-0168_41"
    INDEX 01 01:10:13
  TRACK 42 AUDIO
    TITLE "1Q_t_0159-0168_42"
    INDEX 01 01:10:31
  TRACK 43 AUDIO
    TITLE "1Q_t_0159-0168_43"
    INDEX 01 01:15:49
  TRACK 44 AUDIO
    TITLE "1Q_t_0159-0168_44"
    INDEX 01 01:16:27
  TRACK 45 AUDIO
    TITLE "1Q_t_0159-0168_45"
    INDEX 01 01:17:34
  TRACK 46 AUDIO
    TITLE "1Q_t_0159-0168_46"
    INDEX 01 01:17:50
  TRACK 47 AUDIO
    TITLE "1Q_t_0159-0168_47"
    INDEX 01 01:20:64
  TRACK 48 AUDIO
    TITLE "1Q_t_0159-0168_48"
    INDEX 01 01:21:03
  TRACK 49 AUDIO
    TITLE "1Q_t_0159-0168_49"
    INDEX 01 01:27:13
  TRACK 50 AUDIO
    TITLE "1Q_t_0159-0168_50"
    INDEX 01 01:27:66
  TRACK 51 AUDIO
    TITLE "1Q_t_0159-0168_51"
    INDEX 01 01:29:34
  TRACK 52 AUDIO
    TITLE "1Q_t_0159-0168_52"
    INDEX 01 01:29:49
  TRACK 53 AUDIO
    TITLE "1Q_t_0159-0168_53"
    INDEX 01 01:31:56
  TRACK 54 AUDIO
    TITLE "1Q_t_0159-0168_54"
    INDEX 01 01:31:70
  TRACK 55 AUDIO
    TITLE "1Q_t_0159-0168_55"
    INDEX 01 01:38:74
  TRACK 56 AUDIO
    TITLE "1Q_t_0159-0168_56"
    INDEX 01 01:39:54
  TRACK 57 AUDIO
    TITLE "1Q_t_0159-0168_57"
    INDEX 01 01:40:59
  TRACK 58 AUDIO
    TITLE "1Q_t_0159-0168_58"
    INDEX 01 01:41:04
  TRACK 59 AUDIO
    TITLE "1Q_t_0159-0168_59"
    INDEX 01 01:42:36
  TRACK 60 AUDIO
    TITLE "1Q_t_0159-0168_60"
    INDEX 01 01:42:52
  TRACK 61 AUDIO
    TITLE "1Q_t_0159-0168_61"
    INDEX 01 01:48:12
